*********************************************************************
 
El Ragol El Ghamed Beslamto 2010 Arabic DVDRip X264 ACC - alrmothe

*********************************************************************

TiTLE: El Ragol El Ghamed Beslamto
YEAR:2010
GENRE : Comedy
elcinema URL : http://www.elcinema.com/work/wk1293121/
SIZE : 1.77 GB
Format : mp4 
Overall bit rate:2417 Kbps
Sub: No 
Encoded / Released By:alrmothe
*********************************************************************

Video
Format : AVC
Format/Info : Advanced Video Codec
Format profile : High@L3.0
Runtime: 1h 45min 5sec
bit rate: 2235 Kbps
Width: 716 pixels
Height: 416 pixels
Frame rate: 25 fps
Bit depth : 8 bits
Bits/(Pixel*Frame) : 0.300
Stream size : 1.64 GiB (92%)

Audio: Arabic
Format: ACC
Bit rate: 178 Kbps
Sampling rate: 48.0 KHz
Channel(s): 2 channels
Stream size : 134 MiB (8%)
Language : Arabic

***********************************



Screenshots 
http://img689.imageshack.us/img689/1448/vlcsnap2013022222h02m47.png 
http://img685.imageshack.us/img685/5153/vlcsnap2013022222h05m12.png 
http://img42.imageshack.us/img42/9473/vlcsnap2013022222h06m02.png 
http://img836.imageshack.us/img836/6167/elragolelghamedbeslamto.png
